<svg xmlns="http://www.w3.org/2000/svg" xml:space="preserve" width="2000" height="1500" data-id="lg_ieanvWBmoGvitZqX82" data-version="1" viewBox="0 0 2000 1500"><path fill="#fff" stroke="transparent" d="M0 0h2000v1500H0z"/><g data-padding="20"><g transform="translate(-1034.247 -782.652)scale(1.9985)"><rect width="729.669" height="56.5" x="253.053" y="369.811" fill="none" rx="0" ry="0" transform="translate(400 464.99)"/><path fill="#3d3d3d" d="M689.798 878.751v-35.65h14.17q4.08 0 7.25 1.17 3.18 1.18 5.37 3.45 2.18 2.28 3.33 5.57 1.15 3.28 1.15 7.51 0 3.77-1.01 7.04-1.01 3.26-3.22 5.71-2.22 2.45-5.84 3.82-3.63 1.38-8.85 1.38Zm8.22-6.58h4.1q3.85 0 6.12-1.5 2.26-1.5 3.26-4.1t1-5.87q0-2.48-.59-4.5-.59-2.03-1.8-3.49t-3.09-2.25q-1.87-.79-4.47-.79h-4.53Zm31.52 7.26q-1.45 0-2.49-.6t-1.6-1.63q-.56-1.04-.56-2.32 0-1.95 1.25-3.2t3.42-1.25q1.45 0 2.49.57 1.04.56 1.6 1.57t.56 2.31q0 1.93-1.23 3.24-1.24 1.31-3.44 1.31m10.15-.68v-35.65h14.17q4.08 0 7.25 1.17 3.18 1.18 5.37 3.45 2.18 2.28 3.33 5.57 1.15 3.28 1.15 7.51 0 3.77-1.01 7.04-1.01 3.26-3.22 5.71-2.22 2.45-5.84 3.82-3.63 1.38-8.85 1.38Zm8.22-6.58h4.1q3.85 0 6.12-1.5 2.26-1.5 3.26-4.1t1-5.87q0-2.48-.59-4.5-.59-2.03-1.8-3.49t-3.09-2.25q-1.87-.79-4.47-.79h-4.53Zm31.53 7.26q-1.45 0-2.49-.6t-1.6-1.63q-.56-1.04-.56-2.32 0-1.95 1.25-3.2t3.42-1.25q1.45 0 2.49.57 1.04.56 1.6 1.57t.56 2.31q0 1.93-1.23 3.24-1.24 1.31-3.44 1.31m25.47-.68h-8.25q.95-2.88 1.99-6.05 1.04-3.18 1.96-6.03l4.03-12.22q1.07-3.33 1.95-5.99.87-2.66 1.75-5.36h10.6q.9 2.8 1.76 5.45t1.94 5.9l3.97 12.25q.98 2.95 1.99 6.07 1.01 3.13 1.94 5.98h-8.5q-.8-2.85-1.65-5.84t-1.63-5.66l-4.9-17.18h-.6l-4.95 17q-.8 2.78-1.68 5.82Zm17.85-7.45h-17.5l.88-6.15h15.92Zm23.63 8.1q-2.23 0-4.56-.36-2.34-.37-4.38-.94-2.04-.58-3.31-1.2l.6-7.23q1.72.98 3.61 1.67 1.89.68 3.78 1.06 1.88.37 3.61.37 1.72 0 3-.42 1.27-.43 1.97-1.29t.7-2.24q0-1.4-.91-2.31t-2.61-1.6-4.05-1.36q-3.25-.95-5.55-2.21-2.3-1.27-3.51-3.25-1.22-1.99-1.22-5.12 0-3.12 1.38-5.51 1.37-2.39 4.15-3.74 2.77-1.35 7.02-1.35 1.68 0 3.35.22 1.68.21 3.27.56 1.58.35 2.93.8t2.35.95l-.62 7.25q-1.6-1-3.33-1.68-1.72-.67-3.37-1.02t-3-.35q-1.53 0-2.76.4-1.24.4-1.97 1.22-.72.83-.72 2.08 0 1.22.69 2.06.68.84 2.12 1.48 1.44.63 3.71 1.31 4.28 1.27 6.75 2.66 2.48 1.39 3.52 3.34 1.03 1.95 1.03 4.9 0 3.27-1.42 5.71-1.43 2.44-4.45 3.79-3.03 1.35-7.8 1.35m30.02 0q-2.22 0-4.56-.36-2.34-.37-4.37-.94-2.04-.58-3.32-1.2l.6-7.23q1.73.98 3.62 1.67 1.88.68 3.77 1.06 1.89.37 3.61.37 1.73 0 3-.42 1.28-.43 1.98-1.29t.7-2.24q0-1.4-.91-2.31-.92-.91-2.62-1.6t-4.05-1.36q-3.25-.95-5.55-2.21-2.3-1.27-3.51-3.25-1.21-1.99-1.21-5.12 0-3.12 1.37-5.51 1.38-2.39 4.15-3.74 2.78-1.35 7.03-1.35 1.67 0 3.35.22 1.67.21 3.26.56t2.94.8 2.35.95l-.63 7.25q-1.6-1-3.32-1.68-1.73-.67-3.38-1.02t-3-.35q-1.52 0-2.76.4t-1.96 1.22q-.73.83-.73 2.08 0 1.22.69 2.06t2.13 1.48q1.43.63 3.71 1.31 4.27 1.27 6.75 2.66 2.47 1.39 3.51 3.34t1.04 4.9q0 3.27-1.43 5.71-1.42 2.44-4.45 3.79-3.02 1.35-7.8 1.35m42.58-.65h-23.9v-35.65h23.67v6.72h-19.55l3.93-5.42v33.05l-3.4-5.43h19.25Zm-11.2-14.85h-6.53v-6.25h16.7v6.25Zm33.87 14.85h-8.2v-34.35l3.1 5.87h-13.87v-7.17h29.72v7.17h-13.87l3.12-5.87Zm31.75 0h-7.67q.37-2.8.72-5.6t.75-6.08l1.48-11.95q.42-3.22.77-6.1.35-2.87.73-5.92h8.32q1.2 3.05 2.29 5.84 1.09 2.78 2.16 5.53l4.25 10.9h.55l4.13-10.87q1.05-2.78 2.09-5.5 1.03-2.73 2.18-5.9h8.23q.37 3 .74 5.87.36 2.88.78 6.18l1.53 12q.4 3.25.76 6t.71 5.6h-7.82q-.45-3.75-.88-7.13-.42-3.37-.77-6.32l-1.05-8.45h-.55l-3.1 9.07q-1.13 3.35-2.26 6.64-1.14 3.29-2.12 6.19h-5.45q-.7-1.88-1.51-4.03t-1.66-4.38q-.85-2.24-1.68-4.39l-3.45-9.1h-.55l-1.02 8.4q-.35 2.97-.76 6.36-.42 3.39-.87 7.14m47.3 0h-8.25q.95-2.88 1.99-6.05 1.04-3.18 1.96-6.03l4.03-12.22q1.07-3.33 1.95-5.99.87-2.66 1.75-5.36h10.6q.9 2.8 1.76 5.45t1.94 5.9l3.97 12.25q.98 2.95 1.99 6.07 1.01 3.13 1.94 5.98h-8.5q-.8-2.85-1.65-5.84t-1.63-5.66l-4.9-17.18h-.6l-4.95 17q-.8 2.78-1.68 5.82Zm17.85-7.45h-17.5l.88-6.15h15.92Zm20 7.45h-7.7v-35.65h7.18l4.72 6.89q2.23 3.23 4.45 6.48l5.8 8.4h.6v-21.77h7.73v35.65h-7.1q-2.05-3-4.3-6.25t-4.93-7.1l-5.87-8.5h-.58Zm35.58 0h-8.25q.95-2.88 1.99-6.05 1.03-3.18 1.96-6.03l4.02-12.22q1.08-3.33 1.95-5.99.88-2.66 1.75-5.36h10.6q.9 2.8 1.77 5.45.86 2.65 1.93 5.9l3.98 12.25q.97 2.95 1.99 6.07l1.93 5.98h-8.5q-.8-2.85-1.65-5.84t-1.62-5.66l-4.9-17.18h-.6l-4.95 17q-.8 2.78-1.69 5.82-.89 3.03-1.71 5.86m17.85-7.45h-17.5l.87-6.15h15.93Zm29.9 8.08q-4.6 0-8.18-1.36-3.57-1.36-6.03-3.84-2.47-2.47-3.75-5.85-1.29-3.37-1.29-7.4 0-5.45 2.24-9.63 2.23-4.19 6.41-6.55 4.17-2.37 10.02-2.37 1.88 0 3.67.24 1.78.24 3.38.63 1.6.38 2.98.87 1.37.49 2.42 1.01l-.62 7.63q-2.1-1.2-4.06-1.95-1.97-.75-3.75-1.09-1.79-.34-3.37-.34-2.3 0-4.26.74t-3.44 2.21q-1.47 1.48-2.28 3.64-.82 2.16-.82 4.99 0 2.42.69 4.57t2.09 3.79 3.56 2.56q2.16.93 5.09.93 1.55 0 2.95-.15t2.7-.48q1.3-.32 2.56-.81t2.54-1.19l.97 7.33q-.85.35-2.18.69-1.34.33-3 .61-1.67.27-3.52.42t-3.72.15m12.42-1.87-7.72.15v-17.35h7.72Zm30.3 1.24h-23.9v-35.65h23.68v6.72h-19.55l3.92-5.42v33.05l-3.4-5.43h19.25Zm-11.2-14.85h-6.52v-6.25h16.7v6.25Zm23.8 14.85h-7.67q.37-2.8.72-5.6t.75-6.08l1.48-11.95q.42-3.22.77-6.1.35-2.87.73-5.92h8.32q1.2 3.05 2.29 5.84 1.09 2.78 2.16 5.53l4.25 10.9h.55l4.13-10.87q1.05-2.78 2.09-5.5 1.03-2.73 2.18-5.9h8.23q.37 3 .74 5.87.36 2.88.78 6.18l1.53 12q.4 3.25.76 6t.71 5.6h-7.82q-.45-3.75-.88-7.13-.42-3.37-.77-6.32l-1.05-8.45h-.55l-3.1 9.07q-1.13 3.35-2.26 6.64-1.14 3.29-2.12 6.19h-5.45q-.7-1.88-1.51-4.03t-1.66-4.38q-.85-2.24-1.68-4.39l-3.45-9.1h-.55l-1.02 8.4q-.35 2.97-.76 6.36-.42 3.39-.87 7.14m65.4 0h-23.9v-35.65h23.68v6.72h-19.55l3.92-5.42v33.05l-3.4-5.43h19.25Zm-11.2-14.85h-6.52v-6.25h16.7v6.25Zm24.85 14.85h-7.7v-35.65h7.18l4.72 6.89q2.23 3.23 4.45 6.48l5.8 8.4h.6v-21.77h7.73v35.65h-7.1q-2.05-3-4.3-6.25t-4.93-7.1l-5.87-8.5h-.58Zm46.54 0h-8.2v-34.35l3.1 5.87h-13.88v-7.17h29.73v7.17h-13.88l3.13-5.87Z"/><rect width="510.672" height="24.86" x="362.552" y="385.631" fill="none" rx="0" ry="0" transform="translate(393.62 506.63)"/><path fill="#3d3d3d" d="M774.958 912.231q-1.99 0-3.49-.65-1.5-.64-2.49-1.77-1-1.13-1.49-2.59-.5-1.46-.5-3.09 0-2.29.93-4.13.93-1.83 2.69-2.91t4.28-1.08q1.91 0 3.38.63t2.47 1.74 1.51 2.58q.51 1.48.51 3.16 0 2.32-.93 4.15-.92 1.83-2.67 2.89-1.75 1.07-4.2 1.07m-.06-1.72q1.51 0 2.6-.52 1.09-.53 1.8-1.43t1.05-2.05.34-2.39q0-1.34-.37-2.5t-1.1-2.04q-.73-.87-1.81-1.36t-2.51-.49q-1.47 0-2.57.51-1.09.52-1.82 1.42-.72.89-1.09 2.04-.36 1.15-.36 2.42t.35 2.42q.35 1.14 1.08 2.04.72.9 1.82 1.41 1.1.52 2.59.52m17.02 1.72q-2.19 0-3.56-.76-1.37-.75-2.01-2.12-.65-1.37-.65-3.2v-9.85h1.98v9.66q0 1.41.42 2.44.42 1.02 1.35 1.56.93.55 2.47.55 1.55 0 2.47-.55.92-.54 1.32-1.56.41-1.03.41-2.47v-9.63h1.98v9.85q0 1.83-.65 3.2t-2.01 2.12q-1.37.76-3.52.76m12.01-.25h-1.95v-15.68h5.3q1.8 0 2.99.42t1.79 1.36q.6.93.6 2.46 0 1.29-.5 2.36-.5 1.06-1.66 1.71-1.17.64-3.16.65l.63-.87 2.47 3.09 1.23 1.53q.65.82 1.27 1.59.61.78 1.1 1.38h-2.33q-.78-.99-1.5-1.91l-1.43-1.8-2.82-3.63 1.23.97h-3.6v-1.63h2.98q1.37 0 2.27-.32.89-.32 1.33-1.03t.44-1.89q0-.98-.32-1.54-.31-.57-.82-.83-.51-.27-1.11-.35-.59-.07-1.14-.07h-4.62l1.33-1.37Zm17.01 0v-15.68h5.51q1.81 0 3.22.52t2.37 1.53 1.46 2.45.5 3.27q0 1.67-.44 3.1-.44 1.44-1.4 2.52t-2.52 1.69q-1.55.6-3.79.6Zm1.99-1.66h2.93q2.25 0 3.58-.82t1.91-2.24q.59-1.43.59-3.22 0-1.37-.35-2.5-.35-1.12-1.06-1.92t-1.81-1.23q-1.11-.43-2.61-.43h-3.18Zm20.21 1.91q-2.18 0-3.55-.76-1.37-.75-2.02-2.12-.64-1.37-.64-3.2v-9.85h1.98v9.66q0 1.41.42 2.44.42 1.02 1.35 1.56.92.55 2.46.55 1.56 0 2.47-.55.92-.54 1.33-1.56.41-1.03.41-2.47v-9.63h1.98v9.85q0 1.83-.65 3.2t-2.02 2.12q-1.36.76-3.52.76m19.84-.25h-9.77v-15.68h9.75v1.7h-8.9l1.1-1.42v15.11l-.99-1.41h8.81Zm-5.22-7.11h-3.03v-1.66h7.79v1.66Zm12.71 7.11v-15.68h5.51q1.82 0 3.22.52 1.41.52 2.37 1.53.97 1.01 1.47 2.45t.5 3.27q0 1.67-.44 3.1-.44 1.44-1.4 2.52-.97 1.08-2.52 1.69-1.56.6-3.79.6Zm1.99-1.66h2.94q2.24 0 3.57-.82t1.92-2.24q.58-1.43.58-3.22 0-1.37-.35-2.5-.34-1.12-1.05-1.92t-1.82-1.23q-1.1-.43-2.61-.43h-3.18Zm16.28 1.66h-2.02v-15.68h2.02Zm13.89 0h-9.8v-15.68h1.99v15.38l-.75-1.47h8.56Zm4.85 0h-2.02v-15.68h2.02Zm11.52.23q-2.05 0-3.6-.61-1.56-.61-2.61-1.71-1.06-1.1-1.6-2.58-.55-1.48-.55-3.2 0-2.37.97-4.2.98-1.83 2.75-2.86 1.78-1.04 4.19-1.04.82 0 1.6.11t1.46.3q.69.2 1.27.42t.99.44l-.17 1.91q-.92-.51-1.77-.82-.86-.31-1.68-.46-.81-.14-1.58-.14-1.31 0-2.4.43-1.1.43-1.9 1.25-.8.83-1.24 2.01-.43 1.17-.43 2.66 0 1.34.38 2.51.38 1.16 1.16 2.04.79.88 2.01 1.37t2.89.49q.62 0 1.24-.06.61-.06 1.21-.2.6-.13 1.18-.35.59-.21 1.14-.51l.23 1.87q-.38.18-.93.34-.56.17-1.24.3-.68.14-1.43.22-.76.07-1.54.07m5.14-.93-1.88.03v-7.2h1.88Zm13.33.7h-9.77v-15.68h9.75v1.7h-8.9l1.1-1.42v15.11l-.99-1.41h8.81Zm-5.21-7.11h-3.04v-1.66h7.79v1.66Zm10.39 7.11h-1.89v-15.68h1.79q1.41 1.98 2.71 3.81l2.56 3.62 3.4 4.8h.16v-12.23h1.9v15.68h-1.77l-2.46-3.47q-1.28-1.82-2.82-4l-3.43-4.82h-.15Zm21.8.25q-1.86 0-3.35-.61-1.49-.6-2.53-1.7-1.05-1.09-1.6-2.57-.56-1.48-.56-3.23 0-2.38.98-4.21t2.72-2.86q1.74-1.04 4.05-1.04.78 0 1.51.11.74.11 1.4.3t1.22.41.97.45l-.18 1.91q-.85-.51-1.66-.82t-1.59-.46q-.77-.14-1.51-.14-1.69 0-3.01.77t-2.08 2.2q-.75 1.42-.75 3.39 0 1.31.39 2.46.39 1.16 1.17 2.04.77.88 1.92 1.38t2.68.5q.56 0 1.12-.07t1.11-.23q.55-.15 1.09-.41.53-.26 1.05-.61l.15 1.89q-.46.3-1.02.52-.55.22-1.16.36-.61.13-1.25.2t-1.28.07m17.73-.25h-9.76v-15.68h9.74v1.7h-8.9l1.1-1.42v15.11l-.99-1.41h8.81Zm-5.21-7.11h-3.04v-1.66h7.79v1.66Zm8.15 10.52-1 .04q.43-.62.68-1.23.24-.62.35-1.29t.11-1.45v-2.12l.93-.06q.6.04.88.45.27.42.27 1.01 0 .68-.18 1.35-.18.68-.5 1.29-.32.62-.71 1.13-.4.51-.83.88m9.63-3.41v-15.68h5.51q1.81 0 3.22.52t2.37 1.53 1.46 2.45.5 3.27q0 1.67-.44 3.1-.44 1.44-1.4 2.52t-2.52 1.69q-1.55.6-3.79.6Zm1.99-1.66h2.93q2.25 0 3.58-.82t1.91-2.24q.59-1.43.59-3.22 0-1.37-.35-2.5-.35-1.12-1.06-1.92t-1.81-1.23q-1.11-.43-2.61-.43h-3.18Zm16.16 1.66h-1.95v-15.68h5.3q1.79 0 2.99.42 1.19.42 1.79 1.36.6.93.6 2.46 0 1.29-.5 2.36-.5 1.06-1.67 1.71-1.16.64-3.15.65l.62-.87 2.48 3.09 1.23 1.53q.65.82 1.27 1.59.61.78 1.1 1.38h-2.34q-.78-.99-1.5-1.91t-1.42-1.8l-2.82-3.63 1.22.97h-3.59v-1.63h2.98q1.37 0 2.26-.32t1.33-1.03.44-1.89q0-.98-.31-1.54-.31-.57-.82-.83-.52-.27-1.11-.35-.59-.07-1.14-.07h-4.62l1.33-1.37Zm14.84 0h-2.03v-15.68h2.03Zm10.98 0h-2.7q-.42-1.17-.9-2.5-.48-1.34-.88-2.47l-1.76-4.92q-.3-.84-.66-1.83-.36-.98-.72-2-.36-1.03-.7-1.96h2.21q.57 1.68 1.23 3.59.66 1.92 1.23 3.6l2.21 6.44h.19l2.23-6.47q.59-1.72 1.22-3.57.64-1.84 1.24-3.59h2.13q-.33.94-.69 1.95-.35 1.01-.71 1.99-.35.99-.65 1.83l-1.76 4.95q-.4 1.15-.86 2.46-.47 1.3-.9 2.5m10.27 0h-2.03v-15.68h2.03Zm5.99 0h-1.89v-15.68h1.79q1.41 1.98 2.71 3.81l2.56 3.62 3.4 4.8h.17v-12.23h1.89v15.68h-1.77l-2.46-3.47q-1.28-1.82-2.82-4l-3.42-4.82h-.16Zm22.12.23q-2.04 0-3.6-.61t-2.61-1.71q-1.06-1.1-1.6-2.58-.55-1.48-.55-3.2 0-2.37.98-4.2.97-1.83 2.75-2.86 1.77-1.04 4.18-1.04.83 0 1.6.11.78.11 1.47.3.68.2 1.26.42t1 .44l-.18 1.91q-.91-.51-1.77-.82t-1.67-.46q-.82-.14-1.59-.14-1.31 0-2.4.43t-1.9 1.25q-.8.83-1.23 2.01-.44 1.17-.44 2.66 0 1.34.38 2.51.38 1.16 1.17 2.04.78.88 2 1.37t2.9.49q.61 0 1.23-.06.61-.06 1.21-.2.6-.13 1.19-.35.58-.21 1.13-.51l.23 1.87q-.37.18-.93.34-.55.17-1.24.3-.68.14-1.43.22-.76.07-1.54.07m5.14-.93-1.88.03v-7.2h1.88Zm13.88-5.42h-1.89l-3.42-5.8q-.55-.92-1.06-1.79-.5-.86-1.16-1.97h2.27q.61 1.05 1.04 1.81t.81 1.44q.39.67.85 1.49l1.52 2.67h.2l1.47-2.57q.49-.87.9-1.58.4-.7.84-1.46l1.03-1.8h2.23q-.56.95-1.11 1.89-.56.95-1.1 1.86Zm.06 6.12h-1.99v-7.78h1.99Zm15.21.25q-1.99 0-3.49-.65-1.49-.64-2.49-1.77-.99-1.13-1.49-2.59-.49-1.46-.49-3.09 0-2.29.93-4.13.93-1.83 2.69-2.91t4.27-1.08q1.92 0 3.39.63t2.47 1.74 1.5 2.58q.51 1.48.51 3.16 0 2.32-.92 4.15-.93 1.83-2.68 2.89-1.75 1.07-4.2 1.07m-.05-1.72q1.5 0 2.59-.52 1.09-.53 1.8-1.43t1.05-2.05.34-2.39q0-1.34-.37-2.5t-1.1-2.04q-.73-.87-1.81-1.36-1.07-.49-2.5-.49-1.48 0-2.57.51-1.1.52-1.82 1.42-.73.89-1.09 2.04-.37 1.15-.37 2.42t.36 2.42q.35 1.14 1.07 2.04t1.82 1.41q1.1.52 2.6.52m16.99 1.72q-2.19 0-3.56-.76-1.37-.75-2.01-2.12t-.64-3.2v-9.85h1.98v9.66q0 1.41.41 2.44.42 1.02 1.35 1.56.93.55 2.47.55 1.55 0 2.47-.55.92-.54 1.33-1.56.4-1.03.4-2.47v-9.63h1.98v9.85q0 1.83-.65 3.2-.64 1.37-2.01 2.12-1.36.76-3.52.76m12.01-.25h-1.94v-15.68h5.3q1.79 0 2.99.42 1.19.42 1.79 1.36.6.93.6 2.46 0 1.29-.5 2.36-.5 1.06-1.67 1.71-1.17.64-3.16.65l.63-.87 2.48 3.09 1.23 1.53 1.26 1.59q.62.78 1.1 1.38h-2.33q-.78-.99-1.5-1.91t-1.43-1.8l-2.81-3.63 1.22.97h-3.6v-1.63h2.98q1.38 0 2.27-.32t1.33-1.03.44-1.89q0-.98-.31-1.54-.32-.57-.83-.83-.51-.27-1.1-.35-.6-.07-1.15-.07h-4.62l1.33-1.37Zm21.57.25q-.98 0-1.97-.19-1-.18-1.84-.45t-1.36-.54l.19-1.88q.74.4 1.54.71.79.3 1.62.46.83.17 1.7.17.98 0 1.77-.27.78-.27 1.24-.86t.46-1.54q0-.84-.48-1.38-.47-.55-1.36-.94-.9-.4-2.18-.8-1.49-.47-2.55-1.02t-1.61-1.36q-.56-.81-.56-2.06 0-1.22.58-2.19t1.72-1.52q1.15-.56 2.84-.56.7 0 1.39.1t1.32.27q.62.17 1.14.38t.88.43l-.2 1.89q-.67-.45-1.42-.75-.74-.31-1.48-.45-.74-.15-1.37-.15-.89 0-1.63.26-.75.27-1.21.81t-.46 1.4q0 .75.39 1.25.38.49 1.22.88.83.39 2.13.81 1.9.59 2.98 1.2t1.54 1.42q.46.8.46 1.97 0 1.28-.57 2.3-.57 1.01-1.77 1.6-1.19.6-3.09.6m14.36 0q-2.19 0-3.56-.76-1.37-.75-2.01-2.12-.65-1.37-.65-3.2v-9.85h1.98v9.66q0 1.41.42 2.44.42 1.02 1.35 1.56.93.55 2.47.55 1.55 0 2.47-.55.92-.54 1.32-1.56.41-1.03.41-2.47v-9.63h1.98v9.85q0 1.83-.65 3.2t-2.01 2.12q-1.37.76-3.52.76m17.17 0q-1.86 0-3.35-.61-1.49-.6-2.54-1.7-1.04-1.09-1.6-2.57-.55-1.48-.55-3.23 0-2.38.98-4.21t2.71-2.86q1.74-1.04 4.05-1.04.78 0 1.52.11t1.4.3 1.22.41.97.45l-.18 1.91q-.86-.51-1.67-.82-.8-.31-1.58-.46-.78-.14-1.51-.14-1.7 0-3.02.77t-2.07 2.2q-.75 1.42-.75 3.39 0 1.31.39 2.46.39 1.16 1.16 2.04.78.88 1.93 1.38t2.68.5q.56 0 1.12-.07t1.11-.23q.55-.15 1.08-.41.54-.26 1.05-.61l.16 1.89q-.46.3-1.02.52t-1.17.36q-.61.13-1.24.2-.64.07-1.28.07m15.07 0q-1.86 0-3.35-.61-1.49-.6-2.54-1.7-1.04-1.09-1.6-2.57-.55-1.48-.55-3.23 0-2.38.98-4.21t2.71-2.86q1.74-1.04 4.05-1.04.78 0 1.52.11t1.4.3 1.22.41.97.45l-.18 1.91q-.86-.51-1.67-.82-.8-.31-1.58-.46-.78-.14-1.51-.14-1.7 0-3.02.77t-2.07 2.2q-.75 1.42-.75 3.39 0 1.31.39 2.46.39 1.16 1.16 2.04.78.88 1.93 1.38t2.68.5q.56 0 1.12-.07t1.11-.23q.55-.15 1.08-.41.54-.26 1.05-.61l.16 1.89q-.46.3-1.02.52t-1.17.36q-.61.13-1.24.2-.64.07-1.28.07m17.72-.25h-9.77v-15.68h9.75v1.7h-8.9l1.1-1.42v15.11l-.99-1.41h8.81Zm-5.21-7.11h-3.04v-1.66h7.79v1.66Zm13.06 7.36q-.97 0-1.97-.19-1-.18-1.84-.45t-1.36-.54l.19-1.88q.74.4 1.54.71.79.3 1.62.46.83.17 1.7.17.98 0 1.77-.27t1.24-.86q.46-.59.46-1.54 0-.84-.47-1.38-.48-.55-1.37-.94-.9-.4-2.18-.8-1.49-.47-2.55-1.02-1.05-.55-1.61-1.36t-.56-2.06q0-1.22.58-2.19t1.72-1.52q1.15-.56 2.84-.56.71 0 1.39.1.69.1 1.32.27.62.17 1.14.38t.88.43l-.2 1.89q-.67-.45-1.42-.75-.74-.31-1.48-.45-.74-.15-1.36-.15-.9 0-1.64.26-.75.27-1.21.81-.45.54-.45 1.4 0 .75.38 1.25.39.49 1.22.88t2.14.81q1.89.59 2.97 1.2t1.54 1.42q.46.8.46 1.97 0 1.28-.57 2.3-.57 1.01-1.76 1.6-1.2.6-3.1.6m12.9 0q-.98 0-1.98-.19-.99-.18-1.83-.45-.85-.27-1.36-.54l.18-1.88q.74.4 1.54.71.8.3 1.63.46.83.17 1.7.17.98 0 1.76-.27.79-.27 1.25-.86.45-.59.45-1.54 0-.84-.47-1.38-.47-.55-1.37-.94-.9-.4-2.17-.8-1.5-.47-2.56-1.02-1.05-.55-1.61-1.36-.55-.81-.55-2.06 0-1.22.58-2.19.57-.97 1.72-1.52 1.14-.56 2.83-.56.71 0 1.4.1.68.1 1.31.27t1.14.38q.52.21.88.43l-.19 1.89q-.67-.45-1.42-.75-.75-.31-1.49-.45-.73-.15-1.36-.15-.89 0-1.64.26-.75.27-1.2.81-.46.54-.46 1.4 0 .75.38 1.25.39.49 1.22.88t2.14.81q1.89.59 2.97 1.2 1.09.61 1.54 1.42.46.8.46 1.97 0 1.28-.57 2.3-.56 1.01-1.76 1.6-1.2.6-3.09.6m8.92 0q-.45 0-.78-.19-.32-.19-.5-.51-.17-.32-.17-.75 0-.64.39-1.03.4-.38 1.06-.38.46 0 .78.17.32.18.5.5t.18.74q0 .64-.39 1.04-.39.41-1.07.41" paint-order="stroke"/><path fill="#333" d="M1017.742 810.667c-17.236 0-34.472-.05-51.708.05-2.48.012-3.882-.77-5.122-2.964a23597 23597 0 0 0-51.72-91.227c-1.19-2.096-1.08-3.646.074-5.655 17.41-30.43 34.77-60.896 52.056-91.4 1.19-2.096 2.554-2.79 4.91-2.79q51.857.093 103.714 0c2.318 0 3.67.645 4.873 2.778a17476 17476 0 0 0 51.373 90.358c1.637 2.852 1.624 4.998 0 7.85a16217 16217 0 0 0-50.828 89.255c-1.574 2.79-3.31 3.844-6.547 3.807-17.025-.162-34.05-.075-51.088-.075Zm-35.675-153.426v120.826c34.249-19.443 67.964-38.589 102.25-58.057a764116 764116 0 0 1-102.25-62.769m3.559-4.278c33.542 20.584 66.414 40.76 100.03 61.393-.36-2.716-.52-4.526-.843-6.3-4.712-26.287-9.45-52.563-14.148-78.85-.657-3.684-.682-3.77-4.365-2.568a111834 111834 0 0 0-63.562 20.66c-5.456 1.772-10.888 3.595-17.125 5.653Zm-9.747 122.76V658.73l-58.553 56.284c19.444 20.162 38.664 40.102 58.553 60.723Zm10.875 6.15c1.178.447 1.724.72 2.282.856 24.91 6.2 49.835 12.413 74.76 18.588 4.017.992 4.004.918 4.934-3.05 5.332-22.89 10.69-45.78 16.009-68.672.235-1.016.31-2.07.57-3.868-33.12 18.86-65.51 37.324-98.567 56.147Zm-18.426-159.487c.545 1.414.868 2.38 1.29 3.286 3.124 6.733 6.41 13.392 9.324 20.212 1.104 2.58 2.368 2.703 4.712 1.934 23.114-7.576 46.264-15.066 69.39-22.592 2.32-.757 4.613-1.612 6.907-2.418-.05-.137-.111-.286-.161-.422Zm110.248 14.917c-.236.1-.484.2-.72.31.559 3.125 1.13 6.262 1.675 9.387 3.98 22.42 7.985 44.826 11.904 67.258.372 2.145 1.054 2.74 3.249 2.194 4.997-1.227 10.08-2.157 15.103-3.273 3.286-.732 6.547-1.575 10.317-2.48a197712 197712 0 0 0-41.54-73.396Zm-159.253 67.01.446.41c.323-.21.695-.385.98-.658 17.757-16.976 35.489-33.964 53.27-50.902 1.426-1.352 1.315-2.468.57-4.055-3.174-6.708-6.237-13.479-9.374-20.212-.347-.756-.893-1.414-1.624-2.554-14.955 26.35-29.611 52.154-44.268 77.97m201.227 11.818c-9.647 2.058-18.315 3.844-26.908 5.865-.918.211-1.934 1.75-2.195 2.84-5.42 22.741-10.75 45.52-16.07 68.287-.161.694-.174 1.426-.26 2.145.173.037.347.087.52.124 14.818-26.14 29.624-52.266 44.925-79.26Zm-66.117 89.031.075-.372c-.633-.248-1.24-.558-1.898-.72-22.99-5.79-45.991-11.544-68.968-17.372-2.294-.582-3.87-.322-5.06 1.997-1.413 2.74-3.2 5.295-4.786 7.936-1.612 2.69-3.187 5.406-5.022 8.52h85.66Zm-90.334-3.075c3.348-5.605 6.138-10.64 9.313-15.413 1.686-2.542 1.5-4.092-.633-6.287-15.55-15.922-30.963-31.98-46.425-47.976-.658-.682-1.39-1.29-2.084-1.922-.173.15-.347.285-.52.434 13.33 23.498 26.647 46.996 40.35 71.176Z"/></g><path fill="transparent" stroke="transparent" stroke-width="2.055" d="M250 441.78h1500v616.44H250z"/></g></svg>